<svg width="24" height="24" viewBox="0 0 24 24" fill="none" xmlns="http://www.w3.org/2000/svg">
<path fill-rule="evenodd" clip-rule="evenodd" d="M0 12C0 5.37151 5.37151 0 12 0C18.6285 0 24 5.37151 24 12C24 18.6285 18.6285 24 12 24C5.37151 24 0 18.6285 0 12ZM12 1.6C6.25516 1.6 1.6 6.25516 1.6 12C1.6 17.7448 6.25516 22.4 12 22.4C17.7448 22.4 22.4 17.7448 22.4 12C22.4 6.25516 17.7448 1.6 12 1.6Z" fill="white"/>
<path d="M13 5V19H10.8236V7.71214C10.4296 7.99864 10.0044 8.24375 9.54784 8.44748C9.09756 8.64484 8.58161 8.81992 8 8.97271V7.08186C8.36273 6.96089 8.71295 6.83356 9.05066 6.69986C9.38837 6.56617 9.71982 6.41655 10.045 6.25102C10.3765 6.08549 10.7079 5.90086 11.0394 5.69714C11.3771 5.49341 11.7242 5.26103 12.0807 5H13Z" fill="white"/>
</svg>
