<svg width="300" height="150" viewBox="0 0 300 150" fill="none" xmlns="http://www.w3.org/2000/svg">
<g clip-path="url(#clip0_18_27473)">
<path d="M108.66 42.5V122.5H188.5V42.5H108.66ZM148.5 98.5C139.66 98.5 132.5 91.34 132.5 82.5C132.5 73.66 139.66 66.5 148.5 66.5C157.34 66.5 164.5 73.66 164.5 82.5C164.5 91.34 157.34 98.5 148.5 98.5Z" fill="#92A4B7" stroke="#29235C" stroke-linejoin="round"/>
<path d="M100.5 34.5V114.5H180.5V34.5H100.5ZM140.5 90.5C131.66 90.5 124.5 83.34 124.5 74.5C124.5 65.66 131.66 58.5 140.5 58.5C149.34 58.5 156.5 65.66 156.5 74.5C156.5 83.34 149.34 90.5 140.5 90.5Z" fill="#BAD0E7" stroke="#29235C" stroke-linejoin="round"/>
<path d="M180.5 34.5L188.5 42.5V122.5L180.5 114.5V34.5Z" fill="#E3ECF6" stroke="#29235C" stroke-linejoin="round"/>
<path d="M100.5 114.5L108.5 122.5H188.5L180.5 114.5H100.5Z" fill="#92A4B7" stroke="#29235C" stroke-linejoin="round"/>
<path d="M141.5 146.5C145.366 146.5 148.5 143.366 148.5 139.5C148.5 135.634 145.366 132.5 141.5 132.5C137.634 132.5 134.5 135.634 134.5 139.5C134.5 143.366 137.634 146.5 141.5 146.5Z" fill="white" stroke="#46494D" stroke-miterlimit="10"/>
<path d="M139.19 142.6V141.26C139.66 141.6 140.21 141.77 140.83 141.77C141.22 141.77 141.53 141.69 141.75 141.52C141.97 141.35 142.08 141.11 142.08 140.81C142.08 140.51 141.94 140.26 141.67 140.09C141.4 139.92 141.02 139.84 140.55 139.84H139.9V138.66H140.5C141.41 138.66 141.87 138.36 141.87 137.75C141.87 137.18 141.52 136.9 140.82 136.9C140.35 136.9 139.9 137.05 139.45 137.35V136.09C139.94 135.84 140.51 135.72 141.17 135.72C141.89 135.72 142.44 135.88 142.84 136.2C143.24 136.52 143.44 136.94 143.44 137.45C143.44 138.37 142.98 138.94 142.05 139.17V139.19C142.54 139.25 142.93 139.43 143.22 139.73C143.51 140.03 143.65 140.39 143.65 140.83C143.65 141.48 143.41 142 142.93 142.38C142.45 142.76 141.79 142.95 140.95 142.95C140.23 142.95 139.64 142.83 139.19 142.6Z" fill="#46494D"/>
<path d="M124.5 136V74" stroke="#29235C" stroke-miterlimit="10"/>
<path d="M156.5 136V75" stroke="#29235C" stroke-miterlimit="10"/>
<path d="M118 129.5H163" stroke="#29235C" stroke-miterlimit="10"/>
<path d="M127.5 126.5L121.5 132.5" stroke="#29235C" stroke-miterlimit="10"/>
<path d="M159.5 126.5L153.5 132.5" stroke="#29235C" stroke-miterlimit="10"/>
<path d="M141.5 16.5C145.366 16.5 148.5 13.366 148.5 9.5C148.5 5.63401 145.366 2.5 141.5 2.5C137.634 2.5 134.5 5.63401 134.5 9.5C134.5 13.366 137.634 16.5 141.5 16.5Z" fill="white" stroke="#46494D" stroke-miterlimit="10"/>
<path d="M142.69 5.67001V12.83H141.15V7.41001C141.07 7.49001 140.97 7.56001 140.85 7.62001C140.73 7.69001 140.61 7.75001 140.48 7.80001C140.35 7.85001 140.21 7.90001 140.07 7.94001C139.93 7.98001 139.79 8.00001 139.65 8.02001V6.72001C140.05 6.60001 140.43 6.45001 140.78 6.27001C141.13 6.09001 141.46 5.89001 141.74 5.67001H142.67H142.69Z" fill="#46494D"/>
<path d="M100.5 37V13" stroke="#29235C" stroke-miterlimit="10"/>
<path d="M180.5 35V13" stroke="#29235C" stroke-miterlimit="10"/>
<path d="M94 19.5H187" stroke="#29235C" stroke-miterlimit="10"/>
<path d="M103.5 16.5L97.5 22.5" stroke="#29235C" stroke-miterlimit="10"/>
<path d="M183.5 16.5L177.5 22.5" stroke="#29235C" stroke-miterlimit="10"/>
<path d="M71.5 81.5C75.366 81.5 78.5 78.366 78.5 74.5C78.5 70.634 75.366 67.5 71.5 67.5C67.634 67.5 64.5 70.634 64.5 74.5C64.5 78.366 67.634 81.5 71.5 81.5Z" fill="white" stroke="#46494D" stroke-miterlimit="10"/>
<path d="M72.69 70.67V77.83H71.15V72.41C71.07 72.49 70.97 72.56 70.85 72.62C70.73 72.69 70.61 72.75 70.48 72.8C70.35 72.85 70.21 72.9 70.07 72.94C69.93 72.98 69.79 73 69.65 73.02V71.72C70.05 71.6 70.43 71.45 70.78 71.27C71.13 71.09 71.46 70.89 71.74 70.67H72.67H72.69Z" fill="#46494D"/>
<path d="M100.16 114.5H78" stroke="#29235C" stroke-miterlimit="10"/>
<path d="M100.16 34.5H78" stroke="#29235C" stroke-miterlimit="10"/>
<path d="M84.5 122V28" stroke="#29235C" stroke-miterlimit="10"/>
<path d="M81.5 111.5L87.5 117.5" stroke="#29235C" stroke-miterlimit="10"/>
<path d="M81.5 31.5L87.5 37.5" stroke="#29235C" stroke-miterlimit="10"/>
<path d="M228.5 82.5C232.366 82.5 235.5 79.366 235.5 75.5C235.5 71.634 232.366 68.5 228.5 68.5C224.634 68.5 221.5 71.634 221.5 75.5C221.5 79.366 224.634 82.5 228.5 82.5Z" fill="white" stroke="#46494D" stroke-miterlimit="10"/>
<path d="M227.72 77.55H230.69V78.83H226.03V78.3C226.03 77.94 226.09 77.62 226.21 77.34C226.33 77.06 226.48 76.8 226.66 76.57C226.84 76.34 227.04 76.14 227.26 75.97C227.48 75.8 227.68 75.64 227.88 75.5C228.09 75.35 228.27 75.21 228.42 75.08C228.57 74.95 228.71 74.81 228.81 74.68C228.92 74.55 228.99 74.42 229.05 74.28C229.1 74.15 229.13 74 229.13 73.85C229.13 73.55 229.05 73.32 228.88 73.17C228.71 73.02 228.45 72.94 228.1 72.94C227.5 72.94 226.92 73.18 226.37 73.66V72.3C226.98 71.91 227.67 71.71 228.43 71.71C228.78 71.71 229.1 71.76 229.38 71.85C229.66 71.94 229.9 72.08 230.1 72.25C230.3 72.42 230.44 72.63 230.55 72.88C230.65 73.13 230.7 73.4 230.7 73.7C230.7 74.02 230.65 74.31 230.55 74.56C230.45 74.81 230.32 75.04 230.15 75.24C229.98 75.44 229.8 75.63 229.58 75.8C229.37 75.97 229.14 76.14 228.91 76.3C228.75 76.41 228.6 76.52 228.46 76.63C228.32 76.74 228.19 76.85 228.08 76.95C227.97 77.06 227.88 77.16 227.82 77.26C227.76 77.36 227.72 77.46 227.72 77.55Z" fill="#46494D"/>
<path d="M224.5 86.5L188.5 122.5" stroke="#29235C" stroke-miterlimit="10"/>
<path d="M216.5 78.5L180.5 114.5" stroke="#29235C" stroke-miterlimit="10"/>
<path d="M222.5 98.5L204.5 80.5" stroke="#29235C" stroke-miterlimit="10"/>
<path d="M213 93.5H222" stroke="#29235C" stroke-miterlimit="10"/>
<path d="M205 85.5H214" stroke="#29235C" stroke-miterlimit="10"/>
</g>
<defs>
<clipPath id="clip0_18_27473">
<rect width="300" height="150" fill="white"/>
</clipPath>
</defs>
</svg>
